<?xml version="1.0" encoding="UTF-8" standalone="no"?>
<!DOCTYPE svg PUBLIC "-//W3C//DTD SVG 1.1//EN"
 "http://www.w3.org/Graphics/SVG/1.1/DTD/svg11.dtd">
<!-- Generated by graphviz version 2.38.0 (20140413.2041)
 -->
<!-- Title: G Pages: 1 -->
<svg width="752pt" height="125pt"
 viewBox="0.00 0.00 751.78 125.00" xmlns="http://www.w3.org/2000/svg" xmlns:xlink="http://www.w3.org/1999/xlink">
<g id="graph0" class="graph" transform="scale(1 1) rotate(0) translate(4 121)">
<title>G</title>
<polygon fill="white" stroke="none" points="-4,4 -4,-121 747.781,-121 747.781,4 -4,4"/>
<!-- PEG&#45;AST -->
<!-- Wildcard node added automatic in EG. -->
<g id="node1" class="node"><title>PEG&#45;AST</title>
<ellipse fill="none" stroke="black" cx="238.44" cy="-45" rx="46.2923" ry="18"/>
<text text-anchor="middle" x="238.44" y="-41.3" font-family="Times,serif" font-size="14.00">PEG AST</text>
</g>
<!-- RD -->
<!-- Wildcard node added automatic in EG. -->
<g id="node5" class="node"><title>RD</title>
<ellipse fill="none" stroke="black" cx="388.586" cy="-76" rx="27" ry="18"/>
<text text-anchor="middle" x="388.586" y="-72.3" font-family="Times,serif" font-size="14.00">RD</text>
</g>
<!-- PEG&#45;AST&#45;&gt;RD -->
<!-- Wildcard node added automatic in EG. -->
<g id="edge3" class="edge"><title>PEG&#45;AST&#45;&gt;RD</title>
<path fill="none" stroke="black" d="M281.414,-51.8123C300.467,-55.1212 323.244,-59.3794 343.586,-64 346.829,-64.7366 350.192,-65.5545 353.549,-66.4072"/>
<polygon fill="black" stroke="black" points="352.911,-69.8585 363.472,-69.0232 354.695,-63.0897 352.911,-69.8585"/>
<text text-anchor="middle" x="323.086" y="-67.8" font-family="Times,serif" font-size="14.00">peg&#45;rd</text>
</g>
<!-- RDX -->
<!-- Wildcard node added automatic in EG. -->
<g id="node2" class="node"><title>RDX</title>
<ellipse fill="none" stroke="black" cx="576.586" cy="-76" rx="27" ry="18"/>
<text text-anchor="middle" x="576.586" y="-72.3" font-family="Times,serif" font-size="14.00">RD</text>
</g>
<!-- SVG -->
<!-- Wildcard node added automatic in EG. -->
<g id="node7" class="node"><title>SVG</title>
<ellipse fill="none" stroke="black" cx="715.183" cy="-76" rx="28.6953" ry="18"/>
<text text-anchor="middle" x="715.183" y="-72.3" font-family="Times,serif" font-size="14.00">SVG</text>
</g>
<!-- RDX&#45;&gt;SVG -->
<!-- Wildcard node added automatic in EG. -->
<g id="edge6" class="edge"><title>RDX&#45;&gt;SVG</title>
<path fill="none" stroke="black" d="M603.6,-76C624.141,-76 653.094,-76 676.222,-76"/>
<polygon fill="black" stroke="black" points="676.388,-79.5001 686.388,-76 676.388,-72.5001 676.388,-79.5001"/>
<text text-anchor="middle" x="645.086" y="-79.8" font-family="Times,serif" font-size="14.00">rd&#45;string</text>
</g>
<!-- PEG -->
<!-- Wildcard node added automatic in EG. -->
<g id="node3" class="node"><title>PEG</title>
<ellipse fill="none" stroke="black" cx="33.1471" cy="-72" rx="27.0966" ry="18"/>
<text text-anchor="middle" x="33.1471" y="-68.3" font-family="Times,serif" font-size="14.00">PEG</text>
</g>
<!-- PEG&#45;&gt;PEG&#45;AST -->
<!-- Wildcard node added automatic in EG. -->
<g id="edge1" class="edge"><title>PEG&#45;&gt;PEG&#45;AST</title>
<path fill="none" stroke="black" d="M60.3079,-68.5255C91.4817,-64.3852 144.356,-57.3627 184.241,-52.0655"/>
<polygon fill="black" stroke="black" points="184.886,-55.5106 194.338,-50.7245 183.965,-48.5716 184.886,-55.5106"/>
<text text-anchor="middle" x="129.294" y="-67.8" font-family="Times,serif" font-size="14.00">pegjs parse</text>
</g>
<!-- EBNF -->
<!-- Wildcard node added automatic in EG. -->
<g id="node4" class="node"><title>EBNF</title>
<ellipse fill="none" stroke="black" cx="33.1471" cy="-18" rx="33.2948" ry="18"/>
<text text-anchor="middle" x="33.1471" y="-14.3" font-family="Times,serif" font-size="14.00">EBNF</text>
</g>
<!-- EBNF&#45;&gt;PEG&#45;AST -->
<!-- Wildcard node added automatic in EG. -->
<g id="edge2" class="edge"><title>EBNF&#45;&gt;PEG&#45;AST</title>
<path fill="none" stroke="black" d="M65.942,-21.0916C94.3923,-23.986 137.209,-28.6576 174.294,-34 178.209,-34.564 182.255,-35.1835 186.319,-35.8321"/>
<polygon fill="black" stroke="black" points="185.96,-39.32 196.395,-37.4896 187.096,-32.4129 185.96,-39.32"/>
<text text-anchor="middle" x="129.294" y="-37.8" font-family="Times,serif" font-size="14.00">parse&#45;ebnf.pegjs</text>
</g>
<!-- RD&#45;&gt;RDX -->
<!-- Wildcard node added automatic in EG. -->
<g id="edge5" class="edge"><title>RD&#45;&gt;RDX</title>
<path fill="none" stroke="black" d="M415.841,-76C448.105,-76 503.022,-76 539.304,-76"/>
<polygon fill="black" stroke="black" points="539.465,-79.5001 549.465,-76 539.465,-72.5001 539.465,-79.5001"/>
<text text-anchor="middle" x="482.586" y="-79.8" font-family="Times,serif" font-size="14.00">rd&#45;optimize&#45;loops</text>
</g>
<!-- OHM -->
<!-- Wildcard node added automatic in EG. -->
<g id="node6" class="node"><title>OHM</title>
<ellipse fill="none" stroke="black" cx="238.44" cy="-99" rx="31.6951" ry="18"/>
<text text-anchor="middle" x="238.44" y="-95.3" font-family="Times,serif" font-size="14.00">OHM</text>
</g>
<!-- OHM&#45;&gt;RD -->
<!-- Wildcard node added automatic in EG. -->
<g id="edge4" class="edge"><title>OHM&#45;&gt;RD</title>
<path fill="none" stroke="black" d="M269.42,-94.3456C293.347,-90.6308 326.927,-85.4175 352.177,-81.4973"/>
<polygon fill="black" stroke="black" points="352.748,-84.9507 362.092,-79.9579 351.674,-78.0336 352.748,-84.9507"/>
<text text-anchor="middle" x="323.086" y="-91.8" font-family="Times,serif" font-size="14.00">ohm&#45;rd</text>
</g>
</g>
</svg>
